<svg width="18" height="18" viewBox="0 0 18 18" fill="none" xmlns="http://www.w3.org/2000/svg">
<path d="M12.025 17.5C10.075 17.5 8.375 16.9543 6.925 15.863C5.475 14.771 4.45833 13.3667 3.875 11.65H0.375V10.15H3.55C3.48333 9.76667 3.45433 9.36267 3.463 8.938C3.471 8.51267 3.5 8.15 3.55 7.85H0.375V6.35H3.875C4.45833 4.63333 5.475 3.229 6.925 2.137C8.375 1.04567 10.075 0.5 12.025 0.5C13.0917 0.5 14.104 0.683334 15.062 1.05C16.0207 1.41667 16.8833 1.925 17.65 2.575L16.575 3.625C15.9583 3.10833 15.2627 2.70833 14.488 2.425C13.7127 2.14167 12.8917 2 12.025 2C10.475 2 9.13333 2.41233 8 3.237C6.86667 4.06233 6.03333 5.1 5.5 6.35H11.95V7.85H5.075C4.99167 8.26667 4.95433 8.68767 4.963 9.113C4.971 9.53767 5.00833 9.88333 5.075 10.15H11.95V11.65H5.5C6.03333 12.9 6.86667 13.9373 8 14.762C9.13333 15.5873 10.475 16 12.025 16C12.8917 16 13.7127 15.8583 14.488 15.575C15.2627 15.2917 15.9583 14.8917 16.575 14.375L17.65 15.425C16.8833 16.075 16.0207 16.5833 15.062 16.95C14.104 17.3167 13.0917 17.5 12.025 17.5Z" fill="#EC6839"/>
</svg>
